HIERARCHY
ROOT Hips
{
  OFFSET 3.13124 94.3669 -3.18751
  CHANNELS  6 Xposition Yposition Zposition Zrotation Xrotation Yrotation
  JOINT LeftUpLeg
  {
    OFFSET 8.64259 1.95398 -2.38835
    CHANNELS 3 Zrotation Xrotation Yrotation
    JOINT LeftLeg
    {
      OFFSET 43.7702 0 0
      CHANNELS 3 Zrotation Xrotation Yrotation
      JOINT LeftFoot
      {
        OFFSET 40.6238 0 0
        CHANNELS 3 Zrotation Xrotation Yrotation
        JOINT LeftToeBase
        {
          OFFSET 12.7242 0 0
          CHANNELS 3 Zrotation Xrotation Yrotation
          End Site
          {
            OFFSET 0 0 0
          }
        }
      }
    }
  }
  JOINT RightUpLeg
  {
    OFFSET -8.2249 1.95398 -2.59336
    CHANNELS 3 Zrotation Xrotation Yrotation
    JOINT RightLeg
    {
      OFFSET 43.5653 0 0
      CHANNELS 3 Zrotation Xrotation Yrotation
      JOINT RightFoot
      {
        OFFSET 40.6238 0 0
        CHANNELS 3 Zrotation Xrotation Yrotation
        JOINT RightToeBase
        {
          OFFSET 12.7242 0 0
          CHANNELS 3 Zrotation Xrotation Yrotation
          End Site
          {
            OFFSET 0 0 0
          }
        }
      }
    }
  }
  JOINT Spine
  {
    OFFSET 0.165834 0.87714 6.61349
    CHANNELS 3 Zrotation Xrotation Yrotation
    JOINT Spine1
    {
      OFFSET 7.38962 1.71661e-005 0
      CHANNELS 3 Zrotation Xrotation Yrotation
      JOINT Spine2
      {
        OFFSET 11.9445 1.14441e-005 0
        CHANNELS 3 Zrotation Xrotation Yrotation
        JOINT Spine3
        {
          OFFSET 14.7254 4.19617e-005 0
          CHANNELS 3 Zrotation Xrotation Yrotation
          JOINT Spine4
          {
            OFFSET 10.9679 0 0
            CHANNELS 3 Zrotation Xrotation Yrotation
            JOINT RightShoulder
            {
              OFFSET 2.46616 -1.6653 3.69651
              CHANNELS 3 Zrotation Xrotation Yrotation
              JOINT RightArm
              {
                OFFSET 13.0012 0 0
                CHANNELS 3 Zrotation Xrotation Yrotation
                JOINT RightForeArm
                {
                  OFFSET 28.7848 1.52588e-005 0
                  CHANNELS 3 Zrotation Xrotation Yrotation
                  JOINT RightHand
                  {
                    OFFSET 26.5688 1.52588e-005 0
                    CHANNELS 3 Zrotation Xrotation Yrotation
                    End Site
                    {
                      OFFSET 0 0 0
                    }
                  }
                }
              }
            }
            JOINT LeftShoulder
            {
              OFFSET 2.38034 -1.29275 -3.75231
              CHANNELS 3 Zrotation Xrotation Yrotation
              JOINT LeftArm
              {
                OFFSET 16.3182 6.10352e-005 0
                CHANNELS 3 Zrotation Xrotation Yrotation
                JOINT LeftForeArm
                {
                  OFFSET 27.0901 0 0
                  CHANNELS 3 Zrotation Xrotation Yrotation
                  JOINT LeftHand
                  {
                    OFFSET 24.5451 1.52588e-005 0
                    CHANNELS 3 Zrotation Xrotation Yrotation
                    End Site
                    {
                      OFFSET 0 0 0
                    }
                  }
                }
              }
            }
            JOINT Neck
            {
              OFFSET 5.0226 -0.0266342 0
              CHANNELS 3 Zrotation Xrotation Yrotation
              JOINT Head
              {
                OFFSET 6.69363 2.86102e-005 0
                CHANNELS 3 Zrotation Xrotation Yrotation
                End Site
                {
                  OFFSET 0 0 0
                }
              }
            }
          }
        }
      }
    }
  }
}
MOTION
Frames:	9
Frame Time:	0.0333333
5.26532 95.4488 -7.68451 171.762 -89.9934 171.764 179.69 1.8572 89.3201 -7.52929 -0.484144 -0.0142177 62.6903 1.34645 0.681397 28.7808 6.70925e-006 1.28611e-006 179.802 1.82546 89.6848 -7.45924 -0.0755216 -0.0145733 62.6596 -1.13977 -0.57687 28.7808 1.45281e-005 2.78206e-005 0.000104661 6.3405 -90.0016 14.1935 0.00197631 6.0867e-006 2.52251 0.00112022 -1.00521e-005 -20.0126 2.15583e-006 1.13277e-005 -4.77083e-015 -1.55301e-018 -3.49426e-018 101.344 -18.4531 -84.1952 -7.95035 28.7758 -7.75557 -7.14432 -29.3192 -10.3397 1.9961 0.120306 1.61114 -78.8422 -21.4706 94.6351 13.9525 -29.0984 -6.57343 5.6668 29.1261 -9.45074 -2.03117 -0.0692768 1.5884 1.75146 -5.05673e-006 -0.000530316 -7.40812 0.000143167 -0.000178448 
5.27351 95.4285 -7.68558 111.837 -89.9826 111.86 179.74 2.58397 89.3631 -9.04646 -0.276195 0.000135158 63.342 1.26936 0.65157 28.7808 6.70925e-006 1.28611e-006 179.788 2.0524 89.6887 -7.95388 -0.155972 -0.0145734 62.9018 -1.09869 -0.55583 28.7808 1.45281e-005 2.78206e-005 0.00161337 6.34047 -90.0206 14.1935 0.00197631 6.0867e-006 2.52251 0.00112022 -1.00521e-005 -20.0126 2.15583e-006 1.13277e-005 -1.59028e-015 -3.10601e-018 -3.10601e-018 101.337 -18.5018 -84.1886 -7.9265 28.7579 -7.82365 -7.10665 -29.3578 -10.2526 2.00317 0.120311 1.53067 -78.8604 -21.4487 94.6118 13.9166 -29.0795 -6.58026 5.66636 29.181 -9.43393 -2.00521 -0.0692766 1.59621 1.71533 -0.00276412 -0.00994615 -7.36277 0.000290623 -0.000494793 
5.28306 95.4255 -7.68837 100.722 -89.9635 100.732 179.726 2.45821 89.3378 -8.7787 -0.297131 -0.00155264 63.2316 1.27831 0.653465 28.7808 6.70925e-006 1.28611e-006 179.785 2.15969 89.674 -8.17164 -0.118536 -0.0145734 62.983 -1.1169 -0.56823 28.7808 1.45281e-005 2.78206e-005 0.000868596 6.34049 -90.0113 14.1935 0.00197631 6.0867e-006 2.52251 0.00112022 -1.00521e-005 -20.0126 2.15583e-006 1.13277e-005 2.52566e-037 6.21202e-018 -2.32951e-018 101.34 -18.5357 -84.1828 -7.89626 28.7241 -7.92982 -7.02748 -29.393 -10.0842 1.94039 0.120445 1.51899 -78.857 -21.4352 94.613 13.8788 -29.1051 -6.51988 5.77954 29.225 -9.64815 -2.08224 -0.0692744 1.65976 1.68634 -0.0399292 -0.0328416 -7.31993 -0.0263915 0.0337971 
5.29345 95.4269 -7.68861 110.617 -89.933 110.629 179.725 2.41801 89.3348 -8.72558 -0.26844 0.0007114 63.2167 1.30985 0.671183 28.7808 6.70925e-006 1.28611e-006 179.784 2.13617 89.6706 -8.165 -0.101289 -0.0145733 62.9951 -1.11418 -0.566848 28.7808 1.45281e-005 2.78206e-005 0.000801382 6.34049 -90.0105 14.1935 0.00197631 6.0867e-006 2.52251 0.00112022 -1.00521e-005 -20.0126 2.15583e-006 1.13277e-005 -4.77083e-015 -1.2424e-017 -3.10601e-018 101.32 -18.5383 -84.2113 -7.88467 28.7284 -7.85176 -7.07884 -29.3884 -10.1878 1.94787 0.121537 1.55486 -78.8816 -21.4157 94.5741 13.8551 -29.0849 -6.55723 5.72482 29.142 -9.56279 -2.02216 -0.0692759 1.61601 1.69836 -0.0257092 -0.0527092 -7.37607 -0.00725815 0.0341103 
5.30236 95.4359 -7.69167 92.3196 -89.9143 92.3376 179.721 2.27995 89.3441 -8.38918 -0.194405 0.00316568 63.0688 1.30294 0.664563 28.7808 6.70925e-006 1.28611e-006 179.786 1.942 89.6692 -7.71981 -0.0922637 -0.0145733 62.7849 -1.09386 -0.551627 28.7808 1.45281e-005 2.78206e-005 0.000951517 6.34049 -90.0125 14.1935 0.00197631 6.0867e-006 2.52251 0.00112022 -1.00521e-005 -20.0126 2.15583e-006 1.13277e-005 -1.59028e-015 2.48481e-017 -6.21202e-018 101.32 -18.6238 -84.1688 -7.96118 28.6635 -8.14849 -6.77617 -29.4193 -9.57581 1.80002 0.108013 1.32275 -78.9008 -21.4062 94.5707 13.8645 -29.079 -6.61201 5.69722 29.2395 -9.47889 -2.01686 -0.0692779 1.55708 1.06655 -0.0632124 -0.197635 -6.27674 -0.046574 0.273771 
5.30953 95.4304 -7.69312 95.7708 -89.9192 95.8025 179.738 2.49761 89.363 -8.84671 -0.128616 0.00315024 63.254 1.22917 0.62677 28.7808 6.70925e-006 1.28611e-006 179.785 1.91541 89.6764 -7.67497 -0.0938081 -0.0145733 62.7684 -1.06238 -0.532612 28.7808 1.45281e-005 2.78206e-005 0.0017146 6.34046 -90.0219 14.1935 0.00197631 6.0867e-006 2.52251 0.00112022 -1.00521e-005 -20.0126 2.15583e-006 1.13277e-005 -1.59028e-015 0 1.55301e-018 101.316 -18.6403 -84.1832 -7.96886 28.6843 -8.12281 -6.82849 -29.4723 -9.66449 1.82358 0.109804 1.34428 -78.8922 -21.3566 94.588 13.8436 -29.0788 -6.56946 5.74869 29.3121 -9.56085 -1.98515 -0.069278 1.55345 1.70063 -0.0289612 -0.162958 -7.26462 -0.0219046 0.0889217 
5.31943 95.4152 -7.69606 110.377 -89.9032 110.408 179.75 2.85151 89.3461 -9.63102 -0.159369 0.0026822 63.5814 1.33844 0.694952 28.7808 6.70925e-006 1.28611e-006 179.763 2.37171 89.6524 -8.68182 -0.266594 -0.0145735 63.2149 -1.04582 -0.530283 28.7808 1.45281e-005 2.78206e-005 0.00165438 6.34046 -90.0212 14.1935 0.00197631 4.78954e-005 2.52251 0.00112022 3.20455e-005 -20.0126 2.15583e-006 5.1119e-005 1.74064e-023 -2.48481e-017 4.01364e-005 101.286 -18.6177 -84.2267 -7.9682 28.648 -8.15733 -6.72812 -29.355 -9.49859 1.7637 0.105095 1.27977 -78.9131 -21.329 94.5684 13.8384 -29.0763 -6.60773 5.68016 29.0654 -9.49534 -1.96241 -0.0692871 1.64836 1.62034 -0.0307326 -0.172861 -7.17263 -0.021903 0.0722668 
5.32494 95.4258 -7.69815 80.2851 -89.9235 80.3107 179.729 2.57562 89.3366 -8.95604 -0.194331 0.00471839 63.2852 1.26564 0.647993 28.7808 6.70925e-006 1.28611e-006 179.778 2.09729 89.6637 -7.99658 -0.0884742 -0.0145733 62.88 -1.08629 -0.548638 28.7808 1.45281e-005 2.78206e-005 0.00152101 6.34047 -90.0186 14.1935 0.00197631 -0.000835416 2.52251 0.00112022 -0.000843944 -20.0126 2.15583e-006 -0.00080009 -1.74486e-022 -1.2424e-017 -0.000804675 101.319 -18.6375 -84.1934 -7.95609 28.7435 -8.03272 -6.99408 -29.5247 -9.97782 1.93248 0.117438 1.41242 -78.8748 -21.3311 94.6118 13.8779 -29.0118 -6.79689 5.47878 29.2888 -9.02687 -1.81491 -0.0696027 1.4221 1.70976 -0.0453427 -0.158809 -7.22059 -0.0477106 0.052288 
5.33181 95.4132 -7.69841 107.361 -89.9389 107.429 179.761 3.1134 89.3715 -10.1406 -0.138691 0.0110354 63.7506 1.25284 0.650948 28.7808 6.70925e-006 1.28611e-006 179.776 2.06845 89.7002 -8.0019 -0.137537 -0.0145734 62.9157 -1.06687 -0.536218 28.7808 1.45281e-005 2.78206e-005 0.00711213 6.34016 -90.0661 14.1935 0.00197631 -0.0236667 2.52251 0.00112022 -0.0236367 -20.0126 2.15583e-006 -0.022646 1.59029e-015 2.48481e-017 -0.0226338 101.332 -18.5437 -84.2224 -7.94057 28.7444 -8.03459 -6.99827 -29.4817 -9.99918 1.92269 0.117517 1.43535 -78.859 -21.4129 94.595 13.8978 -29.0109 -6.80016 5.44409 29.1937 -8.98345 -1.84499 -0.0700072 1.46784 1.66397 -0.0444092 -0.0846959 -7.1509 -0.0351776 0.0807331 
